<svg width="139" height="140" viewBox="0 0 139 140" fill="none" xmlns="http://www.w3.org/2000/svg">
<g filter="url(#filter0_d_1512_648)">
<path fill-rule="evenodd" clip-rule="evenodd" d="M100.808 10.7191C95.2821 1.18663 83.0872 -2.081 73.5354 3.41144L66.9765 7.18295C63.0696 9.42946 58.5184 10.2906 54.0608 9.62675L46.5773 8.51215C35.6792 6.88914 25.5212 14.3861 23.8598 25.2784L22.719 32.7579C22.0395 37.2132 19.8752 41.3083 16.5769 44.3795L11.0397 49.5354C2.97585 57.0439 2.50375 69.6602 9.98398 77.7503L15.1203 83.3056C18.1799 86.6146 20.0322 90.8601 20.3769 95.3537L20.9555 102.897C21.7982 113.883 31.3677 122.119 42.3566 121.315L49.9024 120.762C54.3971 120.433 58.8713 121.632 62.5994 124.165L68.8581 128.416C77.9728 134.606 90.3777 132.259 96.6005 123.167L100.873 116.923C103.419 113.203 107.146 110.453 111.45 109.117L118.676 106.874C129.199 103.608 135.098 92.446 131.869 81.9115L129.652 74.6778C128.331 70.3689 128.504 65.7403 130.143 61.5421L132.895 54.4943C136.902 44.2306 131.854 32.659 121.604 28.6155L114.566 25.8391C110.374 24.1852 106.863 21.1638 104.602 17.2648L100.808 10.7191ZM35.4038 69.7343L38.6556 57.5984L45.2099 72.3618L50.5998 73.806L57.2152 49.1169L50.4344 47.3L47.0708 59.8532L40.524 44.6445L35.2385 43.2282L28.623 67.9174L35.4038 69.7343ZM72.4342 79.6565L74.0181 73.7451L63.2036 70.8473L64.2472 66.9527L73.2187 69.3567L74.6909 63.8625L65.7194 61.4586L66.6511 57.9813L77.1527 60.7951L78.7367 54.8836L61.4543 50.2528L54.8389 74.9419L72.4342 79.6565ZM96.1817 59.558L89.9573 57.8901L90.9019 70.7778L87.847 75.3634L87.0016 57.0981L79.6644 55.1321L82.3682 82.3183L88.2449 83.893L94.1932 76.0202L95.443 85.8217L101.32 87.3964L117.254 65.2043L109.882 63.229L100.052 78.6338L99.63 73.1165L106.961 62.4464L100.737 60.7785L96.4014 67.779L96.1817 59.558Z" fill="url(#paint0_linear_1512_648)"/>
</g>
<defs>
<filter id="filter0_d_1512_648" x="0.668762" y="0.746094" width="137.601" height="139.127" filterUnits="userSpaceOnUse" color-interpolation-filters="sRGB">
<feFlood flood-opacity="0" result="BackgroundImageFix"/>
<feColorMatrix in="SourceAlpha" type="matrix" values="0 0 0 0 0 0 0 0 0 0 0 0 0 0 0 0 0 0 127 0" result="hardAlpha"/>
<feOffset dy="4"/>
<feGaussianBlur stdDeviation="2"/>
<feComposite in2="hardAlpha" operator="out"/>
<feColorMatrix type="matrix" values="0 0 0 0 0 0 0 0 0 0 0 0 0 0 0 0 0 0 0.25 0"/>
<feBlend mode="normal" in2="BackgroundImageFix" result="effect1_dropShadow_1512_648"/>
<feBlend mode="normal" in="SourceGraphic" in2="effect1_dropShadow_1512_648" result="shape"/>
</filter>
<linearGradient id="paint0_linear_1512_648" x1="-1.0431" y1="46.5098" x2="143.846" y2="85.3327" gradientUnits="userSpaceOnUse">
<stop stop-color="#56AB2F"/>
<stop offset="0.911458" stop-color="#A8E063"/>
</linearGradient>
</defs>
</svg>
